<mxfile host="app.diagrams.net" agent="Mozilla/5.0 (Windows NT 10.0; Win64; x64) AppleWebKit/537.36 (KHTML, like Gecko) Chrome/138.0.0.0 Safari/537.36" version="28.0.7">
  <diagram name="Page-1" id="x8abovbsH2CYleBulm1z">
    <mxGraphModel dx="1553" dy="972" grid="1" gridSize="10" guides="1" tooltips="1" connect="1" arrows="1" fold="1" page="1" pageScale="1" pageWidth="1400" pageHeight="850" math="0" shadow="0">
      <root>
        <mxCell id="0" />
        <mxCell id="1" parent="0" />
        <mxCell id="juGbRBueOJN0DVUIq-nO-7" style="edgeStyle=orthogonalEdgeStyle;rounded=0;orthogonalLoop=1;jettySize=auto;html=1;exitX=0;exitY=0;exitDx=0;exitDy=0;endArrow=none;endFill=0;startArrow=classic;startFill=1;strokeWidth=2;" edge="1" parent="1" source="juGbRBueOJN0DVUIq-nO-2">
          <mxGeometry relative="1" as="geometry">
            <mxPoint x="630" y="240" as="targetPoint" />
            <Array as="points">
              <mxPoint x="640" y="240" />
            </Array>
          </mxGeometry>
        </mxCell>
        <mxCell id="juGbRBueOJN0DVUIq-nO-10" style="edgeStyle=orthogonalEdgeStyle;rounded=0;orthogonalLoop=1;jettySize=auto;html=1;exitX=0;exitY=0.5;exitDx=0;exitDy=0;endArrow=none;endFill=0;startArrow=classic;startFill=1;strokeWidth=2;" edge="1" parent="1" source="juGbRBueOJN0DVUIq-nO-2">
          <mxGeometry relative="1" as="geometry">
            <mxPoint x="630" y="360" as="targetPoint" />
            <Array as="points">
              <mxPoint x="640" y="360" />
            </Array>
          </mxGeometry>
        </mxCell>
        <mxCell id="juGbRBueOJN0DVUIq-nO-24" style="edgeStyle=orthogonalEdgeStyle;rounded=0;orthogonalLoop=1;jettySize=auto;html=1;entryX=0;entryY=0.5;entryDx=0;entryDy=0;strokeWidth=2;" edge="1" parent="1" source="juGbRBueOJN0DVUIq-nO-2" target="juGbRBueOJN0DVUIq-nO-20">
          <mxGeometry relative="1" as="geometry" />
        </mxCell>
        <mxCell id="juGbRBueOJN0DVUIq-nO-2" value="" style="ellipse;whiteSpace=wrap;html=1;aspect=fixed;strokeWidth=2;" vertex="1" parent="1">
          <mxGeometry x="990" y="190" width="340" height="340" as="geometry" />
        </mxCell>
        <mxCell id="juGbRBueOJN0DVUIq-nO-3" value="" style="endArrow=none;html=1;rounded=0;exitX=0.024;exitY=0.4;exitDx=0;exitDy=0;exitPerimeter=0;entryX=0.976;entryY=0.405;entryDx=0;entryDy=0;entryPerimeter=0;strokeWidth=2;" edge="1" parent="1" source="juGbRBueOJN0DVUIq-nO-2" target="juGbRBueOJN0DVUIq-nO-2">
          <mxGeometry width="50" height="50" relative="1" as="geometry">
            <mxPoint x="1020" y="358" as="sourcePoint" />
            <mxPoint x="1380" y="358" as="targetPoint" />
          </mxGeometry>
        </mxCell>
        <mxCell id="juGbRBueOJN0DVUIq-nO-4" value="&lt;b&gt;1.1&lt;/b&gt;" style="text;html=1;align=center;verticalAlign=middle;whiteSpace=wrap;rounded=0;fontSize=40;strokeWidth=2;" vertex="1" parent="1">
          <mxGeometry x="1130" y="280" width="60" height="30" as="geometry" />
        </mxCell>
        <mxCell id="juGbRBueOJN0DVUIq-nO-5" value="&lt;b&gt;&lt;font style=&quot;font-size: 30px;&quot;&gt;Collect Customer Information&lt;/font&gt;&lt;/b&gt;" style="text;html=1;align=center;verticalAlign=middle;whiteSpace=wrap;rounded=0;strokeWidth=2;" vertex="1" parent="1">
          <mxGeometry x="1060" y="345" width="200" height="160" as="geometry" />
        </mxCell>
        <mxCell id="juGbRBueOJN0DVUIq-nO-8" value="&lt;font style=&quot;font-size: 30px;&quot;&gt;Booking Details&lt;/font&gt;" style="text;html=1;align=center;verticalAlign=middle;resizable=0;points=[];autosize=1;strokeColor=none;fillColor=none;" vertex="1" parent="1">
          <mxGeometry x="725" y="190" width="230" height="50" as="geometry" />
        </mxCell>
        <mxCell id="juGbRBueOJN0DVUIq-nO-11" value="&lt;span style=&quot;color: rgb(0, 0, 0); font-family: Helvetica; font-style: normal; font-variant-ligatures: normal; font-variant-caps: normal; font-weight: 400; letter-spacing: normal; orphans: 2; text-align: center; text-indent: 0px; text-transform: none; widows: 2; word-spacing: 0px; -webkit-text-stroke-width: 0px; white-space: nowrap; background-color: rgb(255, 255, 255); text-decoration-thickness: initial; text-decoration-style: initial; text-decoration-color: initial; float: none; display: inline !important;&quot;&gt;&lt;font style=&quot;font-size: 30px;&quot;&gt;Customer Information&lt;/font&gt;&lt;/span&gt;" style="text;whiteSpace=wrap;html=1;" vertex="1" parent="1">
          <mxGeometry x="655" y="310" width="300" height="50" as="geometry" />
        </mxCell>
        <mxCell id="juGbRBueOJN0DVUIq-nO-12" value="&lt;font style=&quot;font-size: 40px;&quot;&gt;D1&lt;/font&gt;" style="shape=partialRectangle;whiteSpace=wrap;html=1;top=0;bottom=0;fillColor=none;fontStyle=1;strokeWidth=2;" vertex="1" parent="1">
          <mxGeometry x="1618" y="710" width="70" height="60" as="geometry" />
        </mxCell>
        <mxCell id="juGbRBueOJN0DVUIq-nO-13" value="" style="shape=partialRectangle;whiteSpace=wrap;html=1;top=0;bottom=0;fillColor=none;rotation=90;fontStyle=1;strokeWidth=2;" vertex="1" parent="1">
          <mxGeometry x="1829" y="500" width="60" height="480" as="geometry" />
        </mxCell>
        <mxCell id="juGbRBueOJN0DVUIq-nO-14" value="&lt;font style=&quot;font-size: 40px;&quot;&gt;Customer Database&lt;/font&gt;" style="text;html=1;align=center;verticalAlign=middle;whiteSpace=wrap;rounded=0;strokeWidth=2;" vertex="1" parent="1">
          <mxGeometry x="1704" y="725" width="383" height="30" as="geometry" />
        </mxCell>
        <mxCell id="juGbRBueOJN0DVUIq-nO-25" style="edgeStyle=orthogonalEdgeStyle;rounded=0;orthogonalLoop=1;jettySize=auto;html=1;entryX=0;entryY=0.5;entryDx=0;entryDy=0;strokeWidth=2;" edge="1" parent="1" source="juGbRBueOJN0DVUIq-nO-20" target="juGbRBueOJN0DVUIq-nO-13">
          <mxGeometry relative="1" as="geometry" />
        </mxCell>
        <mxCell id="juGbRBueOJN0DVUIq-nO-29" style="edgeStyle=orthogonalEdgeStyle;rounded=0;orthogonalLoop=1;jettySize=auto;html=1;exitX=1;exitY=0;exitDx=0;exitDy=0;strokeWidth=2;" edge="1" parent="1" source="juGbRBueOJN0DVUIq-nO-20">
          <mxGeometry relative="1" as="geometry">
            <mxPoint x="2289.9999999999995" y="239.66666666666674" as="targetPoint" />
          </mxGeometry>
        </mxCell>
        <mxCell id="juGbRBueOJN0DVUIq-nO-31" style="edgeStyle=orthogonalEdgeStyle;rounded=0;orthogonalLoop=1;jettySize=auto;html=1;exitX=1;exitY=0.5;exitDx=0;exitDy=0;strokeWidth=2;" edge="1" parent="1" source="juGbRBueOJN0DVUIq-nO-20">
          <mxGeometry relative="1" as="geometry">
            <mxPoint x="2359.9999999999995" y="359.66666666666674" as="targetPoint" />
          </mxGeometry>
        </mxCell>
        <mxCell id="juGbRBueOJN0DVUIq-nO-20" value="" style="ellipse;whiteSpace=wrap;html=1;aspect=fixed;strokeWidth=2;" vertex="1" parent="1">
          <mxGeometry x="1690" y="190" width="340" height="340" as="geometry" />
        </mxCell>
        <mxCell id="juGbRBueOJN0DVUIq-nO-21" value="" style="endArrow=none;html=1;rounded=0;exitX=0.024;exitY=0.4;exitDx=0;exitDy=0;exitPerimeter=0;entryX=0.976;entryY=0.405;entryDx=0;entryDy=0;entryPerimeter=0;strokeWidth=2;" edge="1" parent="1" source="juGbRBueOJN0DVUIq-nO-20" target="juGbRBueOJN0DVUIq-nO-20">
          <mxGeometry width="50" height="50" relative="1" as="geometry">
            <mxPoint x="1720" y="358" as="sourcePoint" />
            <mxPoint x="2080" y="358" as="targetPoint" />
          </mxGeometry>
        </mxCell>
        <mxCell id="juGbRBueOJN0DVUIq-nO-22" value="&lt;b&gt;&lt;font&gt;1.2&lt;/font&gt;&lt;/b&gt;" style="text;html=1;align=center;verticalAlign=middle;whiteSpace=wrap;rounded=0;fontSize=40;strokeWidth=2;" vertex="1" parent="1">
          <mxGeometry x="1830" y="280" width="60" height="30" as="geometry" />
        </mxCell>
        <mxCell id="juGbRBueOJN0DVUIq-nO-23" value="&lt;b&gt;&lt;font style=&quot;font-size: 30px;&quot;&gt;Validate Customer Information&lt;/font&gt;&lt;/b&gt;" style="text;html=1;align=center;verticalAlign=middle;whiteSpace=wrap;rounded=0;strokeWidth=2;" vertex="1" parent="1">
          <mxGeometry x="1760" y="345" width="200" height="160" as="geometry" />
        </mxCell>
        <mxCell id="juGbRBueOJN0DVUIq-nO-26" value="&lt;span style=&quot;color: rgb(0, 0, 0); font-family: Helvetica; font-style: normal; font-variant-ligatures: normal; font-variant-caps: normal; font-weight: 400; letter-spacing: normal; orphans: 2; text-indent: 0px; text-transform: none; widows: 2; word-spacing: 0px; -webkit-text-stroke-width: 0px; white-space: nowrap; background-color: rgb(255, 255, 255); text-decoration-thickness: initial; text-decoration-style: initial; text-decoration-color: initial; float: none; display: inline !important;&quot;&gt;&lt;font style=&quot;font-size: 30px;&quot;&gt;Collected&lt;/font&gt;&lt;/span&gt;&lt;div style=&quot;&quot;&gt;&lt;span style=&quot;color: rgb(0, 0, 0); font-family: Helvetica; font-style: normal; font-variant-ligatures: normal; font-variant-caps: normal; font-weight: 400; letter-spacing: normal; orphans: 2; text-indent: 0px; text-transform: none; widows: 2; word-spacing: 0px; -webkit-text-stroke-width: 0px; white-space: nowrap; background-color: rgb(255, 255, 255); text-decoration-thickness: initial; text-decoration-style: initial; text-decoration-color: initial; float: none; display: inline !important;&quot;&gt;&lt;font style=&quot;font-size: 30px;&quot;&gt;Customer Information&lt;/font&gt;&lt;/span&gt;&lt;/div&gt;" style="text;whiteSpace=wrap;html=1;align=center;" vertex="1" parent="1">
          <mxGeometry x="1350" y="270" width="300" height="50" as="geometry" />
        </mxCell>
        <mxCell id="juGbRBueOJN0DVUIq-nO-27" value="&lt;span style=&quot;color: rgb(0, 0, 0); font-family: Helvetica; font-style: normal; font-variant-ligatures: normal; font-variant-caps: normal; font-weight: 400; letter-spacing: normal; orphans: 2; text-indent: 0px; text-transform: none; widows: 2; word-spacing: 0px; -webkit-text-stroke-width: 0px; white-space: nowrap; background-color: rgb(255, 255, 255); text-decoration-thickness: initial; text-decoration-style: initial; text-decoration-color: initial; float: none; display: inline !important;&quot;&gt;&lt;font style=&quot;font-size: 30px;&quot;&gt;Validated&lt;/font&gt;&lt;/span&gt;&lt;div style=&quot;&quot;&gt;&lt;span style=&quot;color: rgb(0, 0, 0); font-family: Helvetica; font-style: normal; font-variant-ligatures: normal; font-variant-caps: normal; font-weight: 400; letter-spacing: normal; orphans: 2; text-indent: 0px; text-transform: none; widows: 2; word-spacing: 0px; -webkit-text-stroke-width: 0px; white-space: nowrap; background-color: rgb(255, 255, 255); text-decoration-thickness: initial; text-decoration-style: initial; text-decoration-color: initial; float: none; display: inline !important;&quot;&gt;&lt;font style=&quot;font-size: 30px;&quot;&gt;Customer Information&lt;/font&gt;&lt;/span&gt;&lt;/div&gt;" style="text;whiteSpace=wrap;html=1;align=center;" vertex="1" parent="1">
          <mxGeometry x="1870" y="580" width="300" height="50" as="geometry" />
        </mxCell>
        <mxCell id="juGbRBueOJN0DVUIq-nO-30" value="&lt;font style=&quot;font-size: 30px;&quot;&gt;Booking Details&lt;/font&gt;" style="text;html=1;align=center;verticalAlign=middle;resizable=0;points=[];autosize=1;strokeColor=none;fillColor=none;" vertex="1" parent="1">
          <mxGeometry x="2020" y="190" width="230" height="50" as="geometry" />
        </mxCell>
        <mxCell id="juGbRBueOJN0DVUIq-nO-32" value="&lt;span style=&quot;color: rgb(0, 0, 0); font-family: Helvetica; font-style: normal; font-variant-ligatures: normal; font-variant-caps: normal; font-weight: 400; letter-spacing: normal; orphans: 2; text-align: center; text-indent: 0px; text-transform: none; widows: 2; word-spacing: 0px; -webkit-text-stroke-width: 0px; white-space: nowrap; background-color: rgb(255, 255, 255); text-decoration-thickness: initial; text-decoration-style: initial; text-decoration-color: initial; float: none; display: inline !important;&quot;&gt;&lt;font style=&quot;font-size: 30px;&quot;&gt;Customer Information&lt;/font&gt;&lt;/span&gt;" style="text;whiteSpace=wrap;html=1;" vertex="1" parent="1">
          <mxGeometry x="2040" y="310" width="300" height="50" as="geometry" />
        </mxCell>
      </root>
    </mxGraphModel>
  </diagram>
</mxfile>
